# xmcd
#
# Track frame offsets: 
#        150
#        12495
#        26707
#        39203
#        56733
#        74234
#        94580
#        120449
#        132190
#        156045
#        168743
#        186534
#        205911
#        224409
#
# Disc length: 3249 seconds
#
# Revision: 0
# Processed by: cddbd v1.5.2PL0 Copyright (c) Steve Scherf et al.
# Submitted via: ExactAudioCopy v0.90b4
#
DISCID=d00caf0e
DTITLE=Watermelon Slim - Ringers
DYEAR=2010
DGENRE=Country Blues
TTITLE0=Good Old Boys Never Change
TTITLE1=Tight Fittin' Jeans
TTITLE2=Truck Drivin Buddy
TTITLE3=He Went To Paris
TTITLE4=If There Is Any Heaven
TTITLE5=Please Take This Cup
TTITLE6=No Way To Reach Nirvana
TTITLE7=End Of The Line
TTITLE8=Cowboys Are Common As Sin
TTITLE9=Soft Lights And Hard Country Music
TTITLE10=I Appreciate That
TTITLE11=And So Our Song Ends
TTITLE12=Living With A Lie
TTITLE13=Letter To Stoney
EXTD=
EXTT0=
EXTT1=
EXTT2=
EXTT3=
EXTT4=
EXTT5=
EXTT6=
EXTT7=
EXTT8=
EXTT9=
EXTT10=
EXTT11=
EXTT12=
EXTT13=
PLAYORDER=
